<svg xmlns="http://www.w3.org/2000/svg" viewBox="37 -755 3319 1241.63" role="img" aria-label="Pico Social" style="color:#44342F" fill="#44342F"><path d="M655 15Q565 15 493.0 -3.5Q421 -22 370.0 -56.5Q319 -91 292.0 -139.0Q265 -187 265 -245Q265 -303 292.0 -350.5Q319 -398 370.0 -432.5Q421 -467 493.0 -485.5Q565 -504 655 -504Q763 -504 847.5 -473.5Q932 -443 980.0 -385.0Q1028 -327 1028 -245Q1028 -159 980.0 -101.0Q932 -43 847.5 -14.0Q763 15 655 15ZM565 -138Q633 -138 681.0 -150.0Q729 -162 754.0 -185.5Q779 -209 779 -245Q779 -298 723.0 -325.0Q667 -352 565 -352Q489 -352 425.5 -343.0Q362 -334 323.5 -310.5Q285 -287 285 -245Q285 -203 323.5 -179.5Q362 -156 425.5 -147.0Q489 -138 565 -138ZM45 -490H271L285 -300V200H45Z"/><path d="M1354 -747V-597H1100V-747ZM1107 -490H1347V0H1107Z"/><path d="M2350 -213Q2350 -141 2305.0 -90.0Q2260 -39 2163.0 -12.0Q2066 15 1911 15Q1756 15 1647.5 -10.0Q1539 -35 1482.5 -92.0Q1426 -149 1426 -244Q1426 -339 1482.5 -396.5Q1539 -454 1647.5 -479.5Q1756 -505 1911 -505Q2066 -505 2162.0 -478.0Q2258 -451 2303.0 -400.0Q2348 -349 2349 -278H2129Q2113 -317 2057.0 -338.5Q2001 -360 1911 -360Q1838 -360 1784.0 -349.5Q1730 -339 1700.5 -314.0Q1671 -289 1671 -244Q1671 -200 1700.0 -175.0Q1729 -150 1783.0 -140.0Q1837 -130 1911 -130Q2001 -130 2057.5 -151.5Q2114 -173 2130 -213Z"/><path d="M2877 15Q2718 15 2612.5 -11.0Q2507 -37 2454.5 -94.0Q2402 -151 2402 -244Q2402 -337 2454.5 -394.5Q2507 -452 2612.5 -478.5Q2718 -505 2877 -505Q3035 -505 3139.5 -478.5Q3244 -452 3296.0 -394.5Q3348 -337 3348 -244Q3348 -151 3296.0 -94.0Q3244 -37 3139.5 -11.0Q3035 15 2877 15ZM2877 -130Q2951 -130 3001.0 -142.5Q3051 -155 3077.0 -180.5Q3103 -206 3103 -244Q3103 -282 3077.5 -308.0Q3052 -334 3002.0 -347.0Q2952 -360 2877 -360Q2803 -360 2751.5 -347.0Q2700 -334 2673.5 -308.5Q2647 -283 2647 -244Q2647 -206 2673.0 -180.5Q2699 -155 2750.5 -142.5Q2802 -130 2877 -130Z"/><g transform="translate(623.025 474.63) scale(0.2173906439854192)"><path d="M662.0013427734375 30.0Q506.667724609375 30.0 382.16748046875 -23.50018310546875Q257.667236328125 -77.0003662109375 177.1671142578125 -176.33407592773438Q96.6669921875 -275.66778564453125 73.333740234375 -412.6683349609375L290.671142578125 -446.002197265625Q323.67095947265625 -314.002685546875 428.6702880859375 -240.66973876953125Q533.6696166992188 -167.3367919921875 674.001708984375 -167.3367919921875Q760.6671752929688 -167.3367919921875 833.9998779296875 -194.66973876953125Q907.3325805664062 -222.002685546875 951.6656799316406 -273.5020446777344Q995.998779296875 -325.00140380859375 995.998779296875 -397.333984375Q995.998779296875 -436.33294677734375 982.6658630371094 -466.3323669433594Q969.3329467773438 -496.331787109375 945.5001525878906 -518.4981994628906Q921.6673583984375 -540.6646118164062 888.3343811035156 -557.3312377929688Q855.0014038085938 -573.9978637695312 815.3345947265625 -585.9979248046875L446.0009765625 -695.331298828125Q392.001708984375 -710.9977416992188 336.16839599609375 -736.6641845703125Q280.3350830078125 -762.3306274414062 233.6680908203125 -803.6639404296875Q187.0010986328125 -844.9972534179688 158.16741943359375 -906.6642761230469Q129.333740234375 -968.331298828125 129.333740234375 -1055.9989013671875Q129.333740234375 -1189.3329467773438 197.83401489257812 -1281.8331604003906Q266.33428955078125 -1374.3333740234375 383.00128173828125 -1421.8333435058594Q499.66827392578125 -1469.3333129882812 644.66845703125 -1468.6666259765625Q791.001953125 -1467.333251953125 906.3353881835938 -1417.3333129882812Q1021.6688232421875 -1367.3333740234375 1098.1689758300781 -1273.5000610351562Q1174.6691284179688 -1179.666748046875 1204.0028076171875 -1047.333251953125L979.99853515625 -1008.6658935546875Q964.6651611328125 -1090.3318481445312 915.9988403320312 -1148.8312072753906Q867.33251953125 -1207.33056640625 795.9999084472656 -1238.6635131835938Q724.6672973632812 -1269.9964599609375 642.001708984375 -1271.329833984375Q561.6693725585938 -1272.6632080078125 495.5032958984375 -1246.6636047363281Q429.33721923828125 -1220.6640014648438 389.6708068847656 -1173.9979248046875Q350.00439453125 -1127.3318481445312 350.00439453125 -1065.9991455078125Q350.00439453125 -1005.9999389648438 384.8373718261719 -969.1670532226562Q419.67034912109375 -932.3341674804688 471.3365478515625 -910.8343811035156Q523.0027465820312 -889.3345947265625 574.00244140625 -875.334716796875L840.00146484375 -800.0018310546875Q890.0018310546875 -786.3350830078125 953.6687622070312 -762.8350219726562Q1017.335693359375 -739.3349609375 1076.8358764648438 -697.0015563964844Q1136.3360595703125 -654.6681518554688 1175.1694946289062 -585.5013732910156Q1214.0029296875 -516.3345947265625 1214.0029296875 -410.667724609375Q1214.0029296875 -302.33392333984375 1170.0026550292969 -219.66702270507812Q1126.0023803710938 -137.0001220703125 1049.3353881835938 -81.66671752929688Q972.6683959960938 -26.33331298828125 873.0014953613281 1.833343505859375Q773.3345947265625 30.0 662.0013427734375 30.0Z"/><path d="M2577.667724609375 30.0Q2362.0010375976562 30.0 2209.8341064453125 -64.6666259765625Q2057.6671752929688 -159.333251953125 1977.3335876464844 -328.333251953125Q1897.0 -497.333251953125 1897 -720Q1897.0 -942.666748046875 1977.3335876464844 -1111.666748046875Q2057.6671752929688 -1280.666748046875 2209.8341064453125 -1375.3333740234375Q2362.0010375976562 -1470.0 2577.667724609375 -1470.0Q2793.3344116210938 -1470.0 2945.5013427734375 -1375.3333740234375Q3097.6682739257812 -1280.666748046875 3178.0018615722656 -1111.666748046875Q3258.33544921875 -942.666748046875 3258.33544921875 -720.0Q3258.33544921875 -497.333251953125 3178.0018615722656 -328.333251953125Q3097.6682739257812 -159.333251953125 2945.5013427734375 -64.6666259765625Q2793.3344116210938 30.0 2577.667724609375 30.0ZM2577.667724609375 -168.670166015625Q2730.666748046875 -167.3367919921875 2832.4994201660156 -236.50296020507812Q2934.3320922851562 -305.66912841796875 2985.331756591797 -430.33502197265625Q3036.3314208984375 -555.0009155273438 3036.3314208984375 -720.0Q3036.3314208984375 -884.9990844726562 2985.331756591797 -1008.4982604980469Q2934.3320922851562 -1131.9974365234375 2832.4994201660156 -1200.9969482421875Q2730.666748046875 -1269.9964599609375 2577.667724609375 -1271.329833984375Q2424.668701171875 -1272.6632080078125 2323.1693420410156 -1203.6636962890625Q2221.6699829101562 -1134.6641845703125 2170.6703186035156 -1009.8316345214844Q2119.670654296875 -884.9990844726562 2119.0040283203125 -720.0Q2118.33740234375 -555.0009155273438 2169.3370666503906 -431.66839599609375Q2220.3367309570312 -308.33587646484375 2322.502716064453 -239.16970825195312Q2424.668701171875 -170.0035400390625 2577.667724609375 -168.670166015625Z"/><path d="M4608.667724609375 30.0Q4393.001037597656 30.0 4240.8341064453125 -64.6666259765625Q4088.6671752929688 -159.333251953125 4008.3335876464844 -328.333251953125Q3928.0 -497.333251953125 3928 -720Q3928.0 -942.666748046875 4008.3335876464844 -1111.666748046875Q4088.6671752929688 -1280.666748046875 4240.8341064453125 -1375.3333740234375Q4393.001037597656 -1470.0 4608.667724609375 -1470.0Q4858.0009765625 -1470.0 5021.667938232422 -1344.1668395996094Q5185.334899902344 -1218.3336791992188 5249.335205078125 -1005.3338623046875L5037.3314208984375 -947.9993896484375Q4994.6649169921875 -1098.9981689453125 4887.498992919922 -1185.1640014648438Q4780.333068847656 -1271.329833984375 4608.667724609375 -1271.329833984375Q4455.668701171875 -1271.329833984375 4353.835998535156 -1202.330322265625Q4252.0032958984375 -1133.330810546875 4200.6702880859375 -1009.1649475097656Q4149.3372802734375 -884.9990844726562 4148.670654296875 -720.0Q4148.0040283203125 -555.0009155273438 4199.3370361328125 -431.001708984375Q4250.6700439453125 -307.00250244140625 4353.169372558594 -237.83633422851562Q4455.668701171875 -168.670166015625 4608.667724609375 -168.670166015625Q4780.333068847656 -168.670166015625 4887.498992919922 -255.33599853515625Q4994.6649169921875 -342.0018310546875 5037.3314208984375 -492.0006103515625L5249.335205078125 -434.6661376953125Q5185.334899902344 -221.66632080078125 5021.667938232422 -95.83316040039062Q4858.0009765625 30.0 4608.667724609375 30.0Z"/><path d="M6039 0V-1440H6248.337158203125V0.0Z"/><path d="M6998 0 7465.998291015625 -1440.0H7766.67138671875L8234.669677734375 0.0H8017.9991455078125L7586.668212890625 -1313.997314453125H7641.334716796875L7214.6705322265625 0.0ZM7240.66796875 -324.6651611328125V-520.668701171875H7992.66845703125V-324.6651611328125Z"/><path d="M8985 0V-1440H9194.337158203125V-197.3367919921875H9846.335205078125V0.0Z"/></g></svg>